<svg xmlns="http://www.w3.org/2000/svg" width="56.693" height="56.693"><path fill="#fff" d="M43.414 4.83H13c-5.283 0-9.58 4.297-9.58 9.58v30.415c0 5.282 4.298 9.58 9.58 9.58h30.415c5.283 0 9.58-4.298 9.58-9.58V14.4c-.001-5.283-4.298-9.58-9.58-9.58zm2.748 5.713l1.096-.004v8.403l-8.375.026-.028-8.4 7.307-.024zM21.13 24.53c1.588-2.197 4.164-3.638 7.076-3.638s5.488 1.44 7.074 3.638c1.032 1.434 1.65 3.188 1.65 5.088a8.74 8.74 0 0 1-8.727 8.725 8.74 8.74 0 0 1-8.726-8.725 8.69 8.69 0 0 1 1.652-5.088zm27.033 20.295c0 2.62-2.13 4.75-4.75 4.75H13c-2.62 0-4.75-2.13-4.75-4.75V24.53h7.4c-.64 1.572-.998 3.29-.998 5.088 0 7.473 6.08 13.557 13.556 13.557s13.555-6.084 13.555-13.557c0-1.8-.36-3.516-1-5.088h7.402v20.295z"/></svg>