<svg xmlns="http://www.w3.org/2000/svg" width="56.693" height="56.693"><path fill="#fff" d="M52.837 15.065a20.11 20.11 0 0 1-5.805 1.591c2.088-1.25 3.688-3.23 4.443-5.592-1.953 1.16-4.114 2-6.418 2.454-1.843-1.964-4.47-3.192-7.377-3.192a10.11 10.11 0 0 0-10.105 10.107 10.12 10.12 0 0 0 .262 2.303c-8.4-.422-15.848-4.445-20.833-10.56-.87 1.492-1.368 3.23-1.368 5.082a10.1 10.1 0 0 0 4.496 8.412 10.08 10.08 0 0 1-4.578-1.265c-.001.042-.001.085-.001.128 0 4.896 3.484 8.98 8.108 9.9-.848.23-1.74.354-2.663.354-.652 0-1.285-.063-1.902-.182a10.12 10.12 0 0 0 9.441 7.019c-3.46 2.71-7.816 4.327-12.552 4.327a20.43 20.43 0 0 1-2.411-.142 28.6 28.6 0 0 0 15.493 4.541c18.59 0 28.756-15.4 28.756-28.756 0-.438-.01-.875-.028-1.31a20.45 20.45 0 0 0 5.042-5.229z"/></svg>