<svg fill="#fff" xmlns="http://www.w3.org/2000/svg" version="1.1" 
xmlns:xlink="http://www.w3.org/1999/xlink" xmlns:svgjs="http://svgjs.com/svgjs" width="512" height="512" x="0" y="0" viewBox="0 0 48 48" 
style="enable-background:new 0 0 512 512" xml:space="preserve">
<g><g xmlns="http://www.w3.org/2000/svg" id="_13-manga" data-name="13-manga"><path d="m9 33h8a1.001 1.001 0 0 1 1 1 1 1 0 0 0 2 0v-22a3.00328 3.00328 0 0 0 -3-3h-8a1 1 0 0 0 -1 1v22a.99974.99974 0 0 0 1 1zm9-14v4h-8v-4zm-1 12h-7v-6h8v6.1709a3.00147 3.00147 0 0 0 -1-.1709zm1-19v5h-2v-6h1a1.0013 1.0013 0 0 1 1 1zm-8-1h4v6h-4z" fill="#fff" data-original="#000000" style="" class=""/><path d="m11 13h2v2h-2z" fill="#fff" data-original="#000000" style="" class=""/><path d="m11 27h2v2h-2z" fill="#fff" data-original="#000000" style="" class=""/><path d="m15 27h2v2h-2z" fill="#fff" data-original="#000000" style="" class=""/><path d="m11 20h2v2h-2z" fill="#fff" data-original="#000000" style="" class=""/><path d="m15 20h2v2h-2z" fill="#fff" data-original="#000000" style="" class=""/><path d="m45 5h-14a7.00818 7.00818 0 0 0 -7 7 7.00787 7.00787 0 0 0 -7-7h-14a3.00328 3.00328 0 0 0 -3 3v30a3.00328 3.00328 0 0 0 3 3h14a1.00111 1.00111 0 0 1 .88184.52734 2.8934 2.8934 0 0 0 2.57816 1.47266h2.54a.99974.99974 0 0 0 1-1 .99974.99974 0 0 0 1 1h2.54a2.889 2.889 0 0 0 2.57715-1.47168 1.00161 1.00161 0 0 1 .88285-.52832h14a3.00328 3.00328 0 0 0 3-3v-30a3.00328 3.00328 0 0 0 -3-3zm-23 7v25.10547a6.979 6.979 0 0 0 -5-2.10547h-11v-28h11a5.00588 5.00588 0 0 1 5 5zm-2.35742 28.58008a2.99766 2.99766 0 0 0 -2.64258-1.58008h-14a1.001 1.001 0 0 1 -1-1v-30a1.0013 1.0013 0 0 1 1-1h1v29a.99974.99974 0 0 0 1 1h12a5.00837 5.00837 0 0 1 4.89893 4h-1.43893a.917.917 0 0 1 -.81742-.41992zm6.35742-28.58008a5.00588 5.00588 0 0 1 5-5h11v28h-11a6.9781 6.9781 0 0 0 -5 2.10547zm20 26a1.00067 1.00067 0 0 1 -1 1h-14a2.99931 2.99931 0 0 0 -2.64355 1.581.915.915 0 0 1 -.81645.419h-1.439a5.00837 5.00837 0 0 1 4.899-4h12a.99943.99943 0 0 0 1-1v-29h1a1.001 1.001 0 0 1 1 1z" fill="#fff" data-original="#000000" style="" class=""/><path d="m39 33a.99943.99943 0 0 0 1-1v-22a.99974.99974 0 0 0 -1-1h-8a3.00328 3.00328 0 0 0 -3 3v22a1 1 0 0 0 2 0 1.00067 1.00067 0 0 1 1-1zm-9-14h8v6h-8zm0-7a1.001 1.001 0 0 1 1-1h7v6h-8zm0 19.1709v-4.1709h8v4h-7a2.99932 2.99932 0 0 0 -1 .1709z" fill="#fff" data-original="#000000" style="" class=""/><path d="m31 13h2v2h-2z" fill="#fff" data-original="#000000" style="" class=""/><path d="m35 13h2v2h-2z" fill="#fff" data-original="#000000" style="" class=""/><path d="m31 21h2v2h-2z" fill="#fff" data-original="#000000" style="" class=""/><path d="m35 21h2v2h-2z" fill="#fff" data-original="#000000" style="" class=""/><path d="m31 28h2v2h-2z" fill="#fff" data-original="#000000" style="" class=""/><path d="m35 28h2v2h-2z" fill="#fff" data-original="#000000" style="" class=""/></g></g></svg>