<svg xmlns="http://www.w3.org/2000/svg"><g id="img-icon-go2">
			<path xmlns="http://www.w3.org/2000/svg" fill="#FF0000" d="M16.6855 33.3391C25.7935 33.3391 33.1855 25.9471 33.1855 16.8391C33.1855 7.73111 25.7935 0.339111 16.6855 0.339111C7.57755 0.339111 0.185547 7.73111 0.185547 16.8391C0.185547 25.9471 7.57755 33.3391 16.6855 33.3391ZM22.5747 15.6607H24.9369V13.2999H27.2992V15.6621H29.6408V18.0244H27.2992V20.3866H24.9369V18.0244H22.5747V15.6607ZM11.9817 8.58774C14.0634 8.58774 15.9802 9.32061 17.505 10.7369L15.2693 12.9066C14.3907 12.0472 13.1875 11.6361 11.9817 11.6361C9.12717 11.6361 6.84467 13.9984 6.84467 16.8322C6.84467 19.6661 9.1203 22.0284 11.9817 22.0284C14.15 22.0284 16.2992 20.7579 16.6457 18.4822H11.9817V15.6484H19.76C19.8467 16.1007 19.8865 16.5531 19.8865 17.0247C19.8865 21.7355 16.7254 25.0877 11.9817 25.0877V25.0891C7.4043 25.0891 3.7303 21.3959 3.7303 16.8377C3.7303 12.2796 7.4043 8.58774 11.9817 8.58774V8.58774Z"/>
		</g><use xlink:href="#img-icon-go2" xmlns:xlink="http://www.w3.org/1999/xlink"/></svg>