<svg xmlns="http://www.w3.org/2000/svg"><g id="img-icon-ma2">
			<path xmlns="http://www.w3.org/2000/svg" fill="#276ACE" d="M16.6855 33.3635C25.7982 33.3635 33.1855 25.9762 33.1855 16.8635C33.1855 7.75083 25.7982 0.363525 16.6855 0.363525C7.57285 0.363525 0.185547 7.75083 0.185547 16.8635C0.185547 25.9762 7.57285 33.3635 16.6855 33.3635Z"/><path xmlns="http://www.w3.org/2000/svg" fill="white" d="M16.6856 6.96362C11.2269 6.96362 6.78564 11.4048 6.78564 16.8636C6.78564 22.3224 11.2269 26.7636 16.6856 26.7636C18.4265 26.7636 20.1383 26.3056 21.6369 25.4385L20.3981 23.2958C19.2755 23.9454 17.9914 24.2886 16.6856 24.2886C12.5913 24.2886 9.26063 20.958 9.26063 16.8636C9.26063 12.7693 12.5913 9.43861 16.6856 9.43861C20.78 9.43861 24.1107 12.7693 24.1107 16.8636V17.9416C24.1107 18.7513 23.5904 19.3386 22.8731 19.3386C22.1909 19.3386 21.6356 18.7833 21.6356 18.1011V13.1511H19.925C19.0544 12.3906 17.9297 11.9136 16.6856 11.9136C13.9562 11.9136 11.7356 14.1342 11.7356 16.8636C11.7356 19.593 13.9562 21.8136 16.6856 21.8136C17.9854 21.8136 19.1605 21.2996 20.0447 20.4774C20.7262 21.2873 21.7342 21.8136 22.8731 21.8136C24.9548 21.8136 26.5856 20.1127 26.5856 17.9416V16.8636C26.5856 11.4048 22.1444 6.96362 16.6856 6.96362V6.96362ZM16.6856 19.3386C15.3206 19.3386 14.2107 18.2286 14.2107 16.8636C14.2107 15.4986 15.3207 14.3886 16.6856 14.3886C18.0507 14.3886 19.1606 15.4986 19.1606 16.8636C19.1606 18.2286 18.0507 19.3386 16.6856 19.3386V19.3386Z"/>
		</g><use xlink:href="#img-icon-ma2" xmlns:xlink="http://www.w3.org/1999/xlink"/></svg>