<svg xmlns="http://www.w3.org/2000/svg"><g id="img-icon-od2">
			<path xmlns="http://www.w3.org/2000/svg" fill="#FFA800" d="M16.7009 14.0385C18.2765 14.0328 19.5313 12.7671 19.5256 11.1882C19.5198 9.60856 18.2623 8.35169 16.6861 8.35034C15.0966 8.34866 13.8273 9.62882 13.8394 11.2226C13.8513 12.7958 15.1203 14.0442 16.7009 14.0385Z"/><path xmlns="http://www.w3.org/2000/svg" fill="#FFA800" d="M16.6855 0.363525C7.57282 0.363525 0.185547 7.75114 0.185547 16.8635C0.185547 25.9759 7.57282 33.3635 16.6855 33.3635C25.7983 33.3635 33.1855 25.9759 33.1855 16.8635C33.1855 7.75114 25.7983 0.363525 16.6855 0.363525ZM16.7092 5.38121C19.9231 5.38999 22.5027 8.01885 22.4861 11.2682C22.4699 14.4426 19.8481 17.0154 16.6396 17.0046C13.4639 16.9938 10.8593 14.3609 10.8782 11.1801C10.8961 7.9645 13.502 5.37244 16.7092 5.38121ZM23.2187 19.2881C22.5081 20.0177 21.6526 20.5457 20.7026 20.914C19.8046 21.2621 18.8205 21.4373 17.8462 21.5541C17.9937 21.7141 18.0629 21.7928 18.1548 21.8846C19.4768 23.2137 20.8052 24.5361 22.1229 25.8689C22.5719 26.3233 22.6654 26.8864 22.4183 27.4141C22.1485 27.9914 21.5432 28.3708 20.9494 28.33C20.5733 28.304 20.2799 28.1173 20.0196 27.855C19.0217 26.851 18.0049 25.8648 17.0279 24.8419C16.7426 24.5442 16.6062 24.6009 16.3547 24.8595C15.351 25.8932 14.3308 26.9104 13.3049 27.9222C12.844 28.3766 12.2958 28.4589 11.761 28.199C11.1929 27.9242 10.8316 27.3439 10.8593 26.7602C10.8789 26.3665 11.0727 26.0647 11.3434 25.7953C12.6523 24.4891 13.9571 23.1789 15.2622 21.8697C15.349 21.783 15.4294 21.6908 15.5553 21.5558C13.7751 21.3698 12.1699 20.9316 10.7955 19.857C10.6247 19.7233 10.4488 19.5943 10.2935 19.4444C9.69157 18.8668 9.63114 18.2048 10.1068 17.5235C10.5143 16.9402 11.1976 16.7842 11.9082 17.1194C12.046 17.1839 12.177 17.2656 12.3025 17.352C14.8635 19.1119 18.382 19.1602 20.9531 17.4307C21.2076 17.2362 21.4801 17.0762 21.7957 16.9955C22.4088 16.8375 22.9814 17.0634 23.3102 17.6002C23.6866 18.2136 23.6822 18.8118 23.2187 19.2881Z"/>
		</g><use xlink:href="#img-icon-od2" xmlns:xlink="http://www.w3.org/1999/xlink"/></svg>