<svg xmlns="http://www.w3.org/2000/svg"><g id="img-icon-vk2">
			<path xmlns="http://www.w3.org/2000/svg" fill="#4182DE" d="M16.6855 0.363525C7.57273 0.363525 0.185547 7.75071 0.185547 16.8635C0.185547 25.9763 7.57273 33.3635 16.6855 33.3635C25.7984 33.3635 33.1855 25.9763 33.1855 16.8635C33.1855 7.75071 25.7984 0.363525 16.6855 0.363525ZM23.0312 18.9793C23.0312 18.9793 24.4904 20.4196 24.8496 21.0882C24.8599 21.102 24.8651 21.1157 24.8685 21.1226C25.0146 21.3684 25.049 21.5591 24.9768 21.7018C24.8565 21.939 24.444 22.0559 24.303 22.0662H21.7249C21.5462 22.0662 21.1715 22.0198 20.7177 21.707C20.3688 21.4629 20.0251 21.0624 19.6899 20.6723C19.1898 20.0913 18.7566 19.5895 18.3201 19.5895C18.2646 19.5894 18.2095 19.5981 18.1568 19.6152C17.8268 19.7218 17.404 20.1927 17.404 21.4474C17.404 21.8393 17.0946 22.0645 16.8763 22.0645H15.6955C15.2934 22.0645 13.1982 21.9235 11.342 19.9659C9.06976 17.5682 7.02445 12.7591 7.00726 12.7145C6.87836 12.4034 7.14477 12.2366 7.43523 12.2366H10.0391C10.3863 12.2366 10.4998 12.4481 10.5788 12.6354C10.6716 12.8537 11.012 13.7216 11.5705 14.6979C12.4763 16.2895 13.0315 16.9357 13.4766 16.9357C13.5601 16.9347 13.6421 16.9135 13.7155 16.8738C14.2965 16.5507 14.1882 14.4796 14.1624 14.0499C14.1624 13.9691 14.1607 13.1235 13.8634 12.7179C13.6502 12.424 13.2876 12.3123 13.0676 12.271C13.1566 12.1482 13.2739 12.0485 13.4096 11.9806C13.8084 11.7812 14.5268 11.752 15.2401 11.752H15.6371C16.4105 11.7623 16.6099 11.8121 16.8901 11.8826C17.4573 12.0184 17.4693 12.3845 17.4195 13.6374C17.404 13.9932 17.3885 14.3954 17.3885 14.8698C17.3885 14.9729 17.3834 15.0829 17.3834 15.1998C17.3662 15.8374 17.3455 16.561 17.7959 16.8584C17.8546 16.8952 17.9225 16.9148 17.9918 16.9151C18.1482 16.9151 18.6191 16.9151 19.8945 14.7271C20.2878 14.0229 20.6295 13.2911 20.9171 12.5374C20.9429 12.4927 21.0185 12.3552 21.1079 12.302C21.1738 12.2683 21.247 12.2512 21.321 12.2521H24.3821C24.7155 12.2521 24.9441 12.302 24.9871 12.4309C25.0627 12.6354 24.9734 13.2593 23.576 15.1516L22.9521 15.9749C21.6854 17.6352 21.6854 17.7195 23.0312 18.9793V18.9793Z"/>
		</g><use xlink:href="#img-icon-vk2" xmlns:xlink="http://www.w3.org/1999/xlink"/></svg>