<svg xmlns="http://www.w3.org/2000/svg"><g id="img-icon-ya2">
			<path xmlns="http://www.w3.org/2000/svg" fill="#FC3F1D" d="M16.6855 33.3635C25.7982 33.3635 33.1855 25.9762 33.1855 16.8635C33.1855 7.75083 25.7982 0.363525 16.6855 0.363525C7.57285 0.363525 0.185547 7.75083 0.185547 16.8635C0.185547 25.9762 7.57285 33.3635 16.6855 33.3635Z"/><path xmlns="http://www.w3.org/2000/svg" fill="white" d="M22.6562 27.2216H19.0341V9.30704H17.4206C14.4629 9.30704 12.9136 10.7859 12.9136 12.9934C12.9136 15.498 13.9822 16.6584 16.1928 18.1373L18.0145 19.365L12.7789 27.2185H8.88428L13.5964 20.207C10.8867 18.272 9.36192 16.3828 9.36192 13.1955C9.36192 9.21213 12.139 6.50244 17.3961 6.50244H22.6317V27.2155H22.6562V27.2216Z"/>
		</g><use xlink:href="#img-icon-ya2" xmlns:xlink="http://www.w3.org/1999/xlink"/></svg>